PathFileType  4	(X/Y/Z) C:\Users\antoi\Documents\MyRepositories\mobilecap\ResultsAnalysis
DataRate	CameraRate	NumFrames	NumMarkers	Units	OrigDataRate	OrigDataStartFrame	OrigNumFrames
100.0	100.0	4	51	mm	100.0	1	257
Frame#	Time	r_knee			r_shank_antsup			r_ankle			r_calc			r_5meta			r_toe			L_knee			L_shank_antsup			L_ankle			L_calc			L_5meta			L_toe			r_sh2			r_sh3			r_sh4			L_sh2			L_sh3			r_thigh1			r_thigh2			r_thigh3			r_thigh4			r_thigh5			L_thigh1			L_thigh2			L_thigh3			L_thigh4			r.ASIS			r.PSIS			L.ASIS			L.PSIS			C7			R_Shoulder			L_Shoulder			R_Sternum			L_Sternum			R_humerus			R_elbow_med			R_elbow_lat			R_forearm			R_wrist_radius			R_wrist_ulna			L_humerus			L_elbow_med			L_elbow_lat			L_forearm			L_wrist_radius			L_wrist_ulna			R_HJC			L_HJC			R_HJC_reg			L_HJC_reg			
		X1	Y1	Z1	X2	Y2	Z2	X3	Y3	Z3	X4	Y4	Z4	X5	Y5	Z5	X6	Y6	Z6	X7	Y7	Z7	X8	Y8	Z8	X9	Y9	Z9	X10	Y10	Z10	X11	Y11	Z11	X12	Y12	Z12	X13	Y13	Z13	X14	Y14	Z14	X15	Y15	Z15	X16	Y16	Z16	X17	Y17	Z17	X18	Y18	Z18	X19	Y19	Z19	X20	Y20	Z20	X21	Y21	Z21	X22	Y22	Z22	X23	Y23	Z23	X24	Y24	Z24	X25	Y25	Z25	X26	Y26	Z26	X27	Y27	Z27	X28	Y28	Z28	X29	Y29	Z29	X30	Y30	Z30	X31	Y31	Z31	X32	Y32	Z32	X33	Y33	Z33	X34	Y34	Z34	X35	Y35	Z35	X36	Y36	Z36	X37	Y37	Z37	X38	Y38	Z38	X39	Y39	Z39	X40	Y40	Z40	X41	Y41	Z41	X42	Y42	Z42	X43	Y43	Z43	X44	Y44	Z44	X45	Y45	Z45	X46	Y46	Z46	X47	Y47	Z47	X48	Y48	Z48	X49	Y49	Z49	X50	Y50	Z50	X51	Y51	Z51	

1	0.00000000	-1178.49703	910.78447	-407.52393	-1173.71110	760.74233	-407.68469	-1294.82627	410.31725	-404.46844	-1353.52321	382.62344	-467.45303	-1161.64687	347.39245	-372.47675	-1122.72941	373.92592	-423.45832	-1198.58258	911.30175	-754.18156	-1179.20483	706.98998	-732.36270	-1304.99021	422.53799	-744.02556	-1364.73292	384.77432	-680.49956	-1167.67054	340.98879	-780.47258	-1126.73462	373.02091	-722.78646	-1196.83603	648.64321	-411.20744	-1236.99547	770.48146	-370.18967	-1264.32375	662.38827	-362.99814	-1243.19590	727.03085	-790.75382	-1272.26824	613.08306	-778.29527	-1142.23192	1207.70818	-383.65639	-1127.28186	1095.53037	-384.11984	-1188.02146	1064.68553	-376.94933	-1251.68898	1194.51891	-411.99677	-1237.80980	1076.81506	-401.00200	-1120.50013	1206.54653	-763.03161	-1128.87244	1070.20327	-756.77102	-1230.88151	1213.28215	-775.24295	-1235.09287	1075.43342	-779.08224	-1092.81863	1486.61449	-450.15488	-1283.64219	1518.93216	-532.26564	-1111.21996	1478.71339	-721.21122	-1286.72447	1521.87032	-626.07251	-1218.62092	2007.54604	-598.48044	-1155.09015	1962.08830	-422.10547	-1166.63106	1974.50384	-772.81460	-1079.68773	1918.28062	-566.85240	-1079.03034	1919.57256	-617.39370	-1203.46052	1698.19757	-344.70093	-1303.63439	1588.32535	-384.86477	-1290.70518	1613.02310	-311.77012	-1180.67076	1427.33597	-291.90691	-1138.30626	1342.22468	-296.47331	-1167.52798	1336.18673	-272.41054	-1191.38683	1685.14165	-836.07004	-1290.14187	1614.49376	-793.49480	-1261.88990	1611.22448	-868.91988	-1160.68278	1427.48941	-874.24395	-1126.30936	1357.46155	-859.29468	-1150.16359	1353.14989	-883.15787	-1176.20143	1392.45391	-482.53944	-1191.69811	1391.26262	-679.40333	-1167.37545	1396.85726	-489.13091	-1173.26356	1402.47006	-668.33114	
2	0.01000000	-1176.77405	910.41264	-407.34249	-1172.40809	760.25402	-407.74155	-1294.76242	410.34022	-404.48689	-1353.56794	382.68099	-467.53312	-1161.61917	347.72896	-372.61788	-1122.75234	373.91951	-423.54060	-1196.38960	910.69059	-753.72340	-1177.82531	706.27461	-732.07785	-1304.80979	422.51675	-743.89489	-1364.20184	385.14125	-682.19948	-1167.62165	341.07657	-780.41634	-1126.54183	373.03768	-722.58110	-1195.83098	648.78570	-411.67299	-1235.39864	770.14775	-370.26394	-1263.11562	662.64761	-362.75170	-1241.49286	726.64439	-790.47387	-1271.21296	613.10733	-778.38729	-1142.05403	1207.71323	-383.48866	-1126.40971	1095.53739	-383.86213	-1187.10452	1064.13925	-377.08275	-1251.21915	1193.65672	-412.26058	-1236.81129	1076.23954	-401.12668	-1119.64051	1206.47407	-762.66684	-1127.35309	1069.88818	-756.36301	-1230.13459	1212.71810	-776.04680	-1233.65723	1074.71617	-778.89694	-1094.11971	1486.00270	-450.35455	-1284.68315	1518.63470	-531.90763	-1113.66028	1478.92252	-722.65329	-1287.72642	1521.55183	-625.64263	-1216.59493	2007.38207	-598.53653	-1153.34380	1961.45029	-422.22955	-1164.71571	1974.11872	-772.57130	-1078.41214	1917.69582	-566.52953	-1077.57283	1918.62880	-617.14076	-1203.81513	1698.34588	-344.11696	-1304.59926	1589.15358	-383.87591	-1291.62360	1613.83718	-310.91925	-1181.45980	1428.29053	-291.05790	-1138.77749	1343.17957	-295.95656	-1167.93619	1337.13836	-271.79454	-1192.07755	1685.28264	-837.19630	-1291.57662	1615.28266	-794.45712	-1263.25993	1611.97864	-870.06765	-1161.81949	1428.38896	-875.27882	-1127.32118	1358.55665	-860.40426	-1151.19853	1353.85732	-884.07908	-1177.22398	1391.88892	-483.16817	-1193.64806	1391.30286	-679.95907	-1169.31534	1396.38803	-489.54780	-1175.13970	1401.98232	-669.59614	
3	0.02000000	-1175.07861	910.19321	-406.81807	-1171.07136	759.75976	-407.76786	-1294.65468	410.37669	-404.52010	-1353.57457	382.64087	-467.57969	-1161.60529	347.88697	-372.69877	-1122.76317	373.92209	-423.64098	-1194.13795	910.18165	-753.55915	-1176.25984	705.56307	-731.71388	-1304.65905	422.49995	-743.76251	-1364.01511	385.25411	-682.77263	-1167.59105	341.16132	-780.35966	-1126.40746	373.07285	-722.42373	-1194.91069	648.37647	-411.78278	-1233.93335	769.92012	-370.13178	-1261.93225	662.13071	-362.78121	-1239.75783	726.27852	-790.21936	-1270.10716	612.90059	-778.21440	-1141.85766	1207.54676	-383.13851	-1125.56161	1095.31713	-383.53975	-1186.15779	1063.67573	-376.94390	-1250.81877	1192.94639	-412.10199	-1235.86623	1075.34030	-400.79934	-1118.83527	1206.34677	-762.24709	-1125.94833	1069.54747	-756.05431	-1229.42083	1212.04010	-776.42611	-1232.24417	1073.88247	-778.71381	-1095.32666	1485.51334	-449.95659	-1285.68421	1518.26615	-531.36256	-1115.69121	1479.10475	-723.74006	-1287.68479	1520.79687	-624.87791	-1214.53892	2007.20196	-598.36122	-1151.55953	1960.90201	-422.09333	-1162.68379	1973.70443	-772.07282	-1076.94130	1916.76732	-566.44222	-1076.03907	1917.61129	-616.92231	-1204.19590	1698.52179	-343.43057	-1305.46536	1589.99706	-382.98309	-1292.61698	1614.79530	-309.85600	-1182.09670	1429.25182	-290.32622	-1139.21759	1344.27991	-295.39084	-1168.30596	1338.18927	-271.05665	-1192.88236	1685.45339	-838.14891	-1292.99923	1616.09016	-795.63697	-1264.60650	1612.93155	-871.36510	-1162.88048	1429.36374	-876.18505	-1128.28471	1359.78164	-861.33464	-1152.14539	1354.78150	-885.06635	-1177.87608	1391.31151	-483.32670	-1194.90946	1391.17596	-680.06763	-1171.96284	1396.25759	-489.78435	-1175.81501	1401.15018	-670.90582	
4	0.03000000	-1173.48122	909.85638	-406.46927	-1169.78044	759.23638	-407.70267	-1294.53923	410.37472	-404.55748	-1353.56656	382.55317	-467.54264	-1161.62502	347.94614	-372.71954	-1122.78479	373.92447	-423.72992	-1191.93348	909.64446	-753.43681	-1174.63015	704.87570	-731.34310	-1304.51460	422.47661	-743.61766	-1364.05931	385.18411	-682.57083	-1167.57130	341.26681	-780.28436	-1126.36888	373.11910	-722.27222	-1194.05342	647.53989	-411.57004	-1232.64527	769.76836	-369.90269	-1260.71702	661.12774	-362.91980	-1238.06458	725.87697	-789.90171	-1268.95263	612.48726	-777.82270	-1141.66401	1207.27253	-382.70511	-1124.89606	1095.03331	-383.23824	-1185.19226	1063.34714	-376.51887	-1250.45102	1192.27598	-411.76975	-1235.01023	1074.23344	-400.31599	-1118.15228	1206.06662	-761.84090	-1124.61265	1069.22733	-755.73370	-1228.74482	1211.16538	-776.34376	-1230.77801	1073.02241	-778.71122	-1096.15632	1485.14818	-449.47679	-1286.54587	1517.84013	-530.58151	-1117.17297	1479.24202	-724.35059	-1287.43291	1520.04685	-624.31063	-1212.30526	2007.08144	-597.57659	-1149.67798	1960.39246	-421.82306	-1160.48749	1973.23207	-771.35311	-1075.25257	1915.61328	-566.36425	-1074.39696	1916.56057	-616.78106	-1204.55280	1698.72063	-342.69273	-1306.34155	1590.90889	-382.24858	-1293.65493	1615.75011	-308.79264	-1182.63442	1430.22824	-289.66932	-1139.55079	1345.47759	-294.70135	-1168.58865	1339.32701	-270.22604	-1193.70555	1685.70459	-839.08146	-1294.42453	1616.94400	-797.01088	-1265.93492	1614.00448	-872.81754	-1163.87376	1430.38999	-877.06150	-1129.13420	1361.09326	-862.14908	-1152.77506	1356.15877	-886.30054	-1178.23127	1390.81116	-483.25770	-1195.68918	1391.00064	-679.96083	-1174.15462	1396.14815	-489.97250	-1175.88326	1400.43362	-671.90554	
